<svg xmlns="http://www.w3.org/2000/svg" xmlns:xlink="http://www.w3.org/1999/xlink" version="1.1" x="0px" y="0px" viewBox="0 0 100 125" enable-background="new 0 0 100 100" xml:space="preserve"><path fill="#000000" d="M81.838,5H18.162C11.01,5,5.189,10.82,5.189,17.973v64.057C5.189,89.182,11.01,95,18.162,95h63.676  c7.154,0,12.973-5.818,12.973-12.971V17.973C94.811,10.82,88.992,5,81.838,5z M89.25,82.029c0,4.086-3.324,7.412-7.412,7.412H18.162  c-4.088,0-7.412-3.326-7.412-7.412V17.973c0-4.088,3.324-7.412,7.412-7.412h63.676c4.088,0,7.412,3.324,7.412,7.412V82.029z"/><path fill="#000000" d="M60.652,56.076c2.271-3.201,3.502-7.016,3.502-11.021c0-5.102-1.986-9.898-5.594-13.504  c-3.607-3.609-8.404-5.596-13.506-5.596s-9.898,1.986-13.504,5.596c-7.447,7.445-7.447,19.562,0,27.01  c3.605,3.607,8.402,5.594,13.504,5.594c4.006,0,7.82-1.229,11.021-3.502l12.445,12.445c0.631,0.631,1.459,0.947,2.287,0.947  s1.656-0.316,2.289-0.947c1.264-1.264,1.264-3.312,0-4.576L60.652,56.076z M36.127,53.984c-4.924-4.924-4.924-12.934,0-17.857  c2.385-2.385,5.555-3.699,8.928-3.699s6.543,1.314,8.928,3.699s3.699,5.555,3.699,8.928s-1.314,6.543-3.697,8.928  c0,0,0,0-0.002,0.002l0,0c-2.385,2.385-5.557,3.697-8.928,3.697C41.682,57.682,38.512,56.369,36.127,53.984z"/><text x="0" y="115" fill="#000000" font-size="5px" font-weight="bold" font-family="'Helvetica Neue', Helvetica, Arial-Unicode, Arial, Sans-serif">Created by Mert Güler</text><text x="0" y="120" fill="#000000" font-size="5px" font-weight="bold" font-family="'Helvetica Neue', Helvetica, Arial-Unicode, Arial, Sans-serif">from the Noun Project</text></svg>